HIERARCHY
ROOT Hips
{
  OFFSET 0 0.240689 0
  CHANNELS 6 Xposition Yposition Zposition Zrotation Xrotation Yrotation
  JOINT Bip01_Spine0
  {
    OFFSET 0 -24.7459 49.7988
    CHANNELS 6 Xposition Yposition Zposition Zrotation Xrotation Yrotation
    JOINT Bip01_Pelvis
    {
      OFFSET 0 0 0
      CHANNELS 6 Xposition Yposition Zposition Zrotation Xrotation Yrotation
      JOINT Bip01_Spine0_Tail
      {
        OFFSET -6.47486 -3.86022 0
        CHANNELS 6 Xposition Yposition Zposition Zrotation Xrotation Yrotation
        JOINT Bip01_Spine0_Tail1
        {
          OFFSET 10.3837 -0.00825882 0
          CHANNELS 6 Xposition Yposition Zposition Zrotation Xrotation Yrotation
          JOINT Bip01_Spine0_Tail2
          {
            OFFSET 10.3837 -0.00826263 0
            CHANNELS 6 Xposition Yposition Zposition Zrotation Xrotation Yrotation
            JOINT Bip01_Spine0_Tail3
            {
              OFFSET 10.3837 -0.00825882 0
              CHANNELS 6 Xposition Yposition Zposition Zrotation Xrotation Yrotation
              JOINT Bip01_Spine0_Tail4
              {
                OFFSET 10.3837 -0.00826263 0
                CHANNELS 6 Xposition Yposition Zposition Zrotation Xrotation Yrotation
                End Site
                {
                  OFFSET 0 0 0
                }
              }
            }
          }
        }
      }
      JOINT Bip01_R_Thigh
      {
        OFFSET 0 -1.52588e-005 -8.75617
        CHANNELS 6 Xposition Yposition Zposition Zrotation Xrotation Yrotation
        JOINT Bip01_R_Calf
        {
          OFFSET 19.7638 0 0
          CHANNELS 6 Xposition Yposition Zposition Zrotation Xrotation Yrotation
          JOINT Bip01_R_Foot
          {
            OFFSET 18.6534 0 0
            CHANNELS 6 Xposition Yposition Zposition Zrotation Xrotation Yrotation
            JOINT Bip01_R_Toe0
            {
              OFFSET 5.09145 13.9567 0
              CHANNELS 6 Xposition Yposition Zposition Zrotation Xrotation Yrotation
              JOINT Bip01_R_Toe01
              {
                OFFSET 4.28803 0 0
                CHANNELS 6 Xposition Yposition Zposition Zrotation Xrotation Yrotation
                JOINT Bip01_R_Toe02
                {
                  OFFSET 3.85801 0 0
                  CHANNELS 6 Xposition Yposition Zposition Zrotation Xrotation Yrotation
                  End Site
                  {
                    OFFSET 0 0 0
                  }
                }
              }
            }
          }
        }
      }
      JOINT Bip01_L_Thigh
      {
        OFFSET 0 1.52588e-005 8.75617
        CHANNELS 6 Xposition Yposition Zposition Zrotation Xrotation Yrotation
        JOINT Bip01_L_Calf
        {
          OFFSET 19.7638 0 0
          CHANNELS 6 Xposition Yposition Zposition Zrotation Xrotation Yrotation
          JOINT Bip01_L_Foot
          {
            OFFSET 18.6534 0 0
            CHANNELS 6 Xposition Yposition Zposition Zrotation Xrotation Yrotation
            JOINT Bip01_L_Toe0
            {
              OFFSET 5.09144 13.9567 0
              CHANNELS 6 Xposition Yposition Zposition Zrotation Xrotation Yrotation
              JOINT Bip01_L_Toe01
              {
                OFFSET 4.28802 0 0
                CHANNELS 6 Xposition Yposition Zposition Zrotation Xrotation Yrotation
                JOINT Bip01_L_Toe02
                {
                  OFFSET 3.85801 0 0
                  CHANNELS 6 Xposition Yposition Zposition Zrotation Xrotation Yrotation
                  End Site
                  {
                    OFFSET 0 0 0
                  }
                }
              }
            }
          }
        }
      }
      JOINT Bip01_Spine
      {
        OFFSET 9.14835 -0.00640869 -1.1e-005
        CHANNELS 6 Xposition Yposition Zposition Zrotation Xrotation Yrotation
        JOINT Bip01_Spine1
        {
          OFFSET 8.04366 -0.00638199 0
          CHANNELS 6 Xposition Yposition Zposition Zrotation Xrotation Yrotation
          JOINT Bip01_Spine2
          {
            OFFSET 8.04367 -0.00639343 0
            CHANNELS 6 Xposition Yposition Zposition Zrotation Xrotation Yrotation
            JOINT Bip01_Spine3
            {
              OFFSET 8.04304 -0.00831222 0
              CHANNELS 6 Xposition Yposition Zposition Zrotation Xrotation Yrotation
              JOINT Bip01_Neck
              {
                OFFSET 10.6685 1.06813 0
                CHANNELS 6 Xposition Yposition Zposition Zrotation Xrotation Yrotation
                JOINT Bip01_R_Clavicle
                {
                  OFFSET -3.21661 -4.89635 -9.04802
                  CHANNELS 6 Xposition Yposition Zposition Zrotation Xrotation Yrotation
                  JOINT Bip01_R_UpperArm
                  {
                    OFFSET 19.0492 0 0
                    CHANNELS 6 Xposition Yposition Zposition Zrotation Xrotation Yrotation
                    JOINT Bip01_R_Forearm
                    {
                      OFFSET 10.3706 0 0
                      CHANNELS 6 Xposition Yposition Zposition Zrotation Xrotation Yrotation
                      JOINT Bip01_R_Hand
                      {
                        OFFSET 22.8632 0 0
                        CHANNELS 6 Xposition Yposition Zposition Zrotation Xrotation Yrotation
                        JOINT Bip01_R_Finger0
                        {
                          OFFSET 6.48259 0.103651 0.504496
                          CHANNELS 6 Xposition Yposition Zposition Zrotation Xrotation Yrotation
                          JOINT Bip01_R_Finger01
                          {
                            OFFSET 3.66847 0 0
                            CHANNELS 6 Xposition Yposition Zposition Zrotation Xrotation Yrotation
                            End Site
                            {
                              OFFSET 0 0 0
                            }
                          }
                        }
                      }
                    }
                  }
                }
                JOINT Bip01_L_Clavicle
                {
                  OFFSET -3.21661 -4.89641 9.04797
                  CHANNELS 6 Xposition Yposition Zposition Zrotation Xrotation Yrotation
                  JOINT Bip01_L_UpperArm
                  {
                    OFFSET 19.0492 0 0
                    CHANNELS 6 Xposition Yposition Zposition Zrotation Xrotation Yrotation
                    JOINT Bip01_L_Forearm
                    {
                      OFFSET 10.3706 0 0
                      CHANNELS 6 Xposition Yposition Zposition Zrotation Xrotation Yrotation
                      JOINT Bip01_L_Hand
                      {
                        OFFSET 22.8631 0 0
                        CHANNELS 6 Xposition Yposition Zposition Zrotation Xrotation Yrotation
                        JOINT Bip01_L_Finger0
                        {
                          OFFSET 6.48257 0.103655 -0.504492
                          CHANNELS 6 Xposition Yposition Zposition Zrotation Xrotation Yrotation
                          JOINT Bip01_L_Finger01
                          {
                            OFFSET 3.66844 0 0
                            CHANNELS 6 Xposition Yposition Zposition Zrotation Xrotation Yrotation
                            End Site
                            {
                              OFFSET 0 0 0
                            }
                          }
                        }
                      }
                    }
                  }
                }
                JOINT Bip01_Neck1
                {
                  OFFSET 7.52459 -0.00656509 0
                  CHANNELS 6 Xposition Yposition Zposition Zrotation Xrotation Yrotation
                  JOINT Bip01_Neck2
                  {
                    OFFSET 8.4783 -0.00588226 0
                    CHANNELS 6 Xposition Yposition Zposition Zrotation Xrotation Yrotation
                    JOINT Bip01_Head
                    {
                      OFFSET 8.41606 0 0
                      CHANNELS 6 Xposition Yposition Zposition Zrotation Xrotation Yrotation
                      JOINT EyesBlue
                      {
                        OFFSET 0 0 0
                        CHANNELS 6 Xposition Yposition Zposition Zrotation Xrotation Yrotation
                        JOINT EyesBlue_2
                        {
                          OFFSET 0 -0.500007 0
                          CHANNELS 6 Xposition Yposition Zposition Zrotation Xrotation Yrotation
                          End Site
                          {
                            OFFSET 0 0 0
                          }
                        }
                      }
                      JOINT Bip01_Head2_Eyeleds
                      {
                        OFFSET 6.52751 7.61746 2.2e-005
                        CHANNELS 6 Xposition Yposition Zposition Zrotation Xrotation Yrotation
                        End Site
                        {
                          OFFSET 0 0 0
                        }
                      }
                      JOINT Bip01_Head_Muzzle
                      {
                        OFFSET 2.88628 13.9448 3.88994
                        CHANNELS 6 Xposition Yposition Zposition Zrotation Xrotation Yrotation
                        End Site
                        {
                          OFFSET 0 0 0
                        }
                      }
                      JOINT Bip01_Head1_Jaw
                      {
                        OFFSET 0.271065 1.32405 0
                        CHANNELS 6 Xposition Yposition Zposition Zrotation Xrotation Yrotation
                        JOINT _Bip01_Head11_TungeControler
                        {
                          OFFSET 4.61616 5.82872 0
                          CHANNELS 6 Xposition Yposition Zposition Zrotation Xrotation Yrotation
                          JOINT _Bip01_Ponytail3_tunge
                          {
                            OFFSET 5.17785 2.98805 0
                            CHANNELS 6 Xposition Yposition Zposition Zrotation Xrotation Yrotation
                            JOINT Bip01_Ponytail31
                            {
                              OFFSET 5.57569 0 0
                              CHANNELS 6 Xposition Yposition Zposition Zrotation Xrotation Yrotation
                              JOINT Bip01_Ponytail32
                              {
                                OFFSET 2.93165 0 0
                                CHANNELS 6 Xposition Yposition Zposition Zrotation Xrotation Yrotation
                                JOINT Bip01_Ponytail3Nub
                                {
                                  OFFSET 3.30155 0 0
                                  CHANNELS 6 Xposition Yposition Zposition Zrotation Xrotation Yrotation
                                  End Site
                                  {
                                    OFFSET 0 0 0
                                  }
                                }
                              }
                            }
                          }
                        }
                        JOINT Bip01_Head_JawNub
                        {
                          OFFSET 15.5776 -0.000389099 0
                          CHANNELS 6 Xposition Yposition Zposition Zrotation Xrotation Yrotation
                          End Site
                          {
                            OFFSET 0 0 0
                          }
                        }
                      }
                      JOINT Bip01_Ponytail2
                      {
                        OFFSET 9.40334 1.03973 -6.51764
                        CHANNELS 6 Xposition Yposition Zposition Zrotation Xrotation Yrotation
                        JOINT Bip01_Ponytail21
                        {
                          OFFSET 2.77018 -0.00640106 1.33514e-005
                          CHANNELS 6 Xposition Yposition Zposition Zrotation Xrotation Yrotation
                          End Site
                          {
                            OFFSET 0 0 0
                          }
                        }
                      }
                      JOINT Bip01_Ponytail1
                      {
                        OFFSET 9.40368 1.03969 6.51768
                        CHANNELS 6 Xposition Yposition Zposition Zrotation Xrotation Yrotation
                        JOINT Bip01_Ponytail11
                        {
                          OFFSET 2.77018 -0.00640487 0
                          CHANNELS 6 Xposition Yposition Zposition Zrotation Xrotation Yrotation
                          End Site
                          {
                            OFFSET 0 0 0
                          }
                        }
                      }
                    }
                  }
                }
              }
            }
          }
        }
      }
    }
  }
}
MOTION
Frames:	4
Frame Time:	0.0333333
0 0 0 -0 -90 -0 0.000814 -28.701 33.7481 90.0002 0.000164026 49.962 1.42109e-014 0 1e-006 -89.9999 -3.90908e-005 -81.2253 -6.39737 -3.85823 -0.987996 172.968 2.11016 12.4705 10.3839 -0.008087 0.001112 4.89693 3.96292 -0.34165 10.3829 -0.00811 -0.000816 -2.19008 -3.70476 -6.80931 10.3839 -0.007934 0.001579 4.38301 6.22779 -8.41536 10.3862 -0.007556 0.000688 21.3557 2.49465 -7.23677 1.1e-005 -1.1e-005 -8.75617 -102.184 0.625563 177.843 19.7638 -1e-006 -1e-006 -94.6908 8.47826e-005 -0.00209376 18.6534 -1e-006 -1.77636e-015 -48.8828 1.47428 -3.62909 5.09143 13.9567 -1.51805e-006 70.3135 -2.78623 -4.15199 4.288 -1e-006 -6.4837e-014 19.8192 1.28504e-005 4.70324e-006 3.85799 3e-006 1.90958e-013 -45 -9.72373e-006 9.66205e-006 -1.3e-005 1.5e-005 8.75617 -152.48 5.9945 -163.53 19.7638 7e-006 -1.77636e-015 -125.922 0.000943164 -0.00298135 18.6534 3e-006 2.66454e-014 60.9777 3.73884 -1.10998 5.09143 13.9567 -8.98804e-007 54.0037 1.50819 4.76893 4.288 -1e-006 1e-006 -16.7728 0.00187178 0.00216309 3.85799 9.59233e-014 -1e-006 -45 -9.75874e-006 -7.83135e-006 9.03272 -0.006332 1.39436 0.0468458 -0.00591727 -8.77378 8.04366 -0.006393 3e-006 -3.18055e-015 1.00179e-005 -4.85314e-020 8.04443 -0.005985 -0.001932 7.97681 -17.6416 0.0157092 8.04304 -0.008323 5.32102e-010 -4.29873 2.43254e-005 2.64607e-005 10.6685 1.06813 6.94077e-006 -13.2811 -2.62671e-005 3.16352e-005 -2.46762 -5.31289 -9.04801 -158.4 -74.4065 141.379 19.0492 7.10543e-015 2.13163e-014 103.954 64.1946 -127.087 10.3705 -2.84217e-014 -3.55271e-015 -87.3186 4.43732e-005 0.00222351 22.8631 -1e-006 -5.68434e-014 7.63758 21.8742 -13.4695 6.48256 0.103653 0.504495 13.0212 -15.4844 0.648541 3.66844 -1e-006 -1.91847e-013 40.107 -3.46298e-005 -7.48355e-007 -2.46761 -5.31294 9.04798 -158.483 68.1703 -129.703 19.0492 -7.10543e-015 -7.10543e-015 86.371 14.0768 86.0936 10.3706 -3e-006 -1.20792e-013 -75.1547 0.000486831 0.00360207 22.8631 3e-006 1.56319e-013 30.4588 -3.27076 19.2474 6.48256 0.103653 -0.504494 43.5635 13.0996 -8.35766 3.66843 3e-006 -1.1724e-013 40.1071 -3.90531e-006 -4.93575e-006 7.52507 -0.006542 0.00012 -19.9796 -0.0195382 -1.99796 8.47605 -0.006572 2.60002e-005 -2.47927 0.000838826 0.00106316 8.41605 -1e-006 -1e-006 -26.2205 4.31183 18.1082 -3.41061e-013 3e-006 -3e-006 -23.1098 1.37701e-015 90 3.59698e-007 -0.5 -3.80285e-006 180 90 -90 6.5275 7.61746 2.26193e-005 -104.487 7.01671e-015 -180 2.88631 13.9448 3.88994 -23.1098 1.37701e-015 90 0.271065 1.32405 2.93383e-006 -71.7785 0.00012207 -180 4.61616 5.82872 -5.37691e-006 -120.289 -1.18857e-005 1.37769e-005 5.17783 2.98805 3.20019e-006 133.74 3.6865e-005 -2.77342e-006 5.57567 7e-006 -3.00001e-006 1.83152 -9.01436e-006 1.26305e-006 2.93163 -7e-006 -3e-006 -17.65 -4.22309e-005 -9.24295e-006 3.30154 -7e-006 3e-006 -26.1943 2.38061e-005 -5.2853e-006 15.5776 -0.000404 -7.00011e-006 3.44836e-033 -2.48481e-016 7.95139e-016 9.40333 1.03973 -6.51764 -19.0868 17.2453 20.3009 2.77018 -0.006404 1.30004e-005 2.43503 9.23121e-006 -1.75751e-005 9.40368 1.03969 6.51768 -19.0868 -17.2453 -20.3008 2.77018 -0.006401 -8.00007e-006 2.43503 9.9684e-006 -2.45916e-007 
0 0 0 -0 -90 -0 0.000814 -28.701 33.6608 90.0002 0.000164026 49.962 0 1.0842e-019 1e-006 -89.9999 3.76826e-005 -85.4245 -6.4472 -3.85823 -0.516643 172.966 3.41908 10.5925 10.3839 -0.008087 0.001112 4.84586 4.9916 0.885409 10.3829 -0.00811 -0.000816 -2.34071 -4.65213 -7.27562 10.3839 -0.007934 0.001579 4.56622 7.84124 -9.30273 10.3862 -0.007556 0.000688 21.4133 3.14266 -7.80657 1.1e-005 -1.1e-005 -8.75617 -103.234 -3.43264 176.901 19.7638 -1e-006 -1e-006 -99.8031 0.000178993 -0.00209378 18.6534 -1e-006 0 -49.302 1.76776 -3.49754 5.09143 13.9567 -2.59036e-006 70.0623 -2.76784 -4.1641 4.288 -1e-006 -7.28306e-014 19.471 1.29391e-005 4.71955e-006 3.85799 3e-006 1.9984e-013 -45 -1.04008e-005 9.74664e-006 -1.3e-005 1.5e-005 8.75617 -142.647 5.93487 -168.003 19.7638 7e-006 0 -111.208 0.000526518 -0.00297916 18.6534 3e-006 1.24345e-014 39.4443 3.82014 -0.0115021 5.09143 13.9567 -9.65358e-007 78.4137 3.34595 3.7192 4.288 -1e-006 1e-006 0.338084 0.00245565 0.00151474 3.85799 -2.73559e-013 -1e-006 -41.6632 -2.88086e-005 -2.21514e-005 9.10309 -0.006332 0.72866 0.0472896 -0.00248176 -4.57425 8.04366 -0.006393 3e-006 6.36111e-015 1.00179e-005 8.17688e-015 8.04443 -0.005985 -0.001932 7.97615 -15.591 0.0137113 8.04304 -0.008323 4.87226e-010 -4.29873 2.43667e-005 2.64839e-005 10.6685 1.06813 6.94575e-006 -13.2811 -2.6191e-005 3.16965e-005 -2.46762 -5.31289 -9.04801 -158.401 -73.7063 140.34 19.0492 -7.10543e-015 1.42109e-014 123.12 73.3117 -143.147 10.3705 1.42109e-014 -7.10543e-015 -65.0488 0.000454849 0.00223728 22.8631 -1e-006 -6.03961e-014 -18.866 14.025 -14.1362 6.48256 0.103653 0.504495 8.17829 -15.4844 -0.644281 3.66844 -1e-006 -1.49214e-013 40.107 -3.15988e-005 2.23313e-006 -2.46761 -5.31294 9.04798 -158.488 69.1265 -135.728 19.0492 -1.77636e-015 1.42109e-014 86.5071 35.065 87.95 10.3706 -3e-006 -1.63425e-013 -112.916 -0.000763514 0.00359608 22.8631 3e-006 1.88294e-013 43.4927 -2.79225 20.2929 6.48257 0.103653 -0.504494 39.8827 13.5988 -7.50754 3.66843 3e-006 -1.77636e-013 40.1071 2.3407e-006 -4.27958e-006 7.52507 -0.006542 0.00012 -19.9275 -0.0212812 -1.99815 8.47605 -0.006572 2.60002e-005 -2.42748 0.000839789 0.0010624 8.41605 -1e-006 -1e-006 -26.135 3.56951 16.2377 -2.98428e-013 3e-006 -3e-006 -23.1098 1.37701e-015 90 3.59858e-007 -0.5 -3.8028e-006 180 90 -90 6.5275 7.61746 2.26635e-005 -104.668 7.01671e-015 -180 2.88631 13.9448 3.88994 -23.1098 1.37701e-015 90 0.271065 1.32405 2.94151e-006 -71.7785 0.00012207 -180 4.61616 5.82872 -5.57633e-006 -120.289 -1.04546e-005 1.20842e-005 5.17783 2.98805 3.17712e-006 133.74 3.50725e-005 -2.45376e-006 5.57567 7e-006 -3e-006 1.83152 -9.33758e-006 1.19599e-006 2.93163 -7e-006 -3e-006 -17.65 -3.83225e-005 -8.50904e-006 3.30154 -7e-006 3e-006 -26.1943 2.29086e-005 -5.99236e-006 15.5776 -0.000404 -7.0001e-006 -0 -9.93923e-017 -0 9.40333 1.03973 -6.51764 -19.0868 17.2453 20.3009 2.77018 -0.006404 1.30004e-005 2.43503 9.23038e-006 -1.75747e-005 9.40368 1.03969 6.51768 -19.0868 -17.2453 -20.3008 2.77018 -0.006401 -8.00011e-006 2.43503 9.97539e-006 -2.59063e-007 
0 0 0 -0 -90 -0 0.000814 -28.701 33.5674 90.0002 0.000164026 49.962 0 -1.0842e-019 1e-006 -89.9998 -5.37075e-006 -90.6897 -6.46886 -3.85823 0.0771719 173.189 4.74773 7.46568 10.3839 -0.008087 0.001112 4.77643 5.87657 2.07936 10.3829 -0.00811 -0.000816 -2.46924 -5.46749 -7.54602 10.3839 -0.007934 0.001579 4.73393 9.23067 -9.93862 10.3862 -0.007556 0.000688 21.4637 3.70114 -8.16411 1.1e-005 -1.1e-005 -8.75617 -104.334 -8.46999 175.533 19.7638 -1e-006 -1e-006 -105.537 0.000286167 -0.00209353 18.6534 -1e-006 -3.55271e-015 -49.4921 2.04687 -3.34272 5.09143 13.9567 -1.90531e-006 69.8057 -2.7489 -4.17635 4.288 -1e-006 -8.26006e-014 19.083 1.30581e-005 4.7263e-006 3.85799 3e-006 2.06057e-013 -45 -1.1419e-005 9.85681e-006 -1.3e-005 1.5e-005 8.75617 -130.488 4.41626 -172.979 19.7638 7e-006 0 -94.8834 0.000116359 -0.00296881 18.6534 3e-006 7.10543e-015 11.1073 3.53879 1.55484 5.09143 13.9567 -1.02022e-006 103.537 4.60688 1.94857 4.288 -1e-006 1e-006 18.2415 0.00280069 0.000687972 3.85799 -2.79776e-014 -1e-006 -35.1823 -2.75321e-005 -1.17505e-005 9.13358 -0.006332 -0.109942 0.0473178 0.00186821 0.690865 8.04366 -0.006393 3e-006 1.59028e-014 1.00179e-005 1.63525e-014 8.04443 -0.005985 -0.001932 7.97565 -11.959 0.0104499 8.04304 -0.008323 3.93548e-010 -4.29873 2.44511e-005 2.65322e-005 10.6685 1.06813 6.95616e-006 -13.2811 -2.60377e-005 3.18248e-005 -2.46762 -5.31289 -9.04801 -158.396 -72.9409 139.341 19.0492 7.10543e-015 -7.10543e-015 136.107 78.4087 -152.838 10.3705 -1.42109e-014 1.06581e-014 -47.4034 0.000841667 0.0022381 22.8631 -1e-006 -8.88179e-014 -33.2428 6.12146 -18.3288 6.48256 0.103653 0.504495 2.81299 -15.3618 -2.07355 3.66844 -1e-006 -1.06581e-013 40.107 -5.62351e-006 3.96447e-006 -2.46761 -5.31294 9.04798 -158.431 70.0751 -141.214 19.0492 0 -2.13163e-014 88.3751 34.2489 83.3255 10.3706 -3e-006 -1.13687e-013 -130.432 -0.00137824 0.00355399 22.8631 3e-006 -6.46594e-013 52.8867 -2.70882 20.9668 6.48257 0.103653 -0.504494 35.9157 14.0742 -6.55846 3.66843 3e-006 -1.3145e-013 40.1071 6.03451e-006 -4.68371e-006 7.52507 -0.006542 0.00012 -19.8291 -0.0245945 -1.99844 8.47605 -0.006572 2.60001e-005 -2.32939 0.000841613 0.00106098 8.41605 -1e-006 -1e-006 -26.0676 2.23688 12.9393 -2.55795e-013 3e-006 -3e-006 -23.1098 1.37701e-015 90 3.60125e-007 -0.5 -3.80272e-006 180 90 -90 6.5275 7.61746 2.27454e-005 -104.849 7.01671e-015 -180 2.88631 13.9448 3.88994 -23.1098 1.37701e-015 90 0.271065 1.32405 2.95575e-006 -71.7785 0.000106812 -180 4.61616 5.82872 -5.93422e-006 -120.289 -7.86071e-006 9.04641e-006 5.17783 2.98805 3.13438e-006 133.74 3.03954e-005 -1.86166e-006 5.57567 7e-006 -3e-006 1.83152 -9.25715e-006 1.02839e-006 2.93163 -7e-006 -3e-006 -17.65 -3.0519e-005 -6.94434e-006 3.30154 -7e-006 3e-006 -26.1943 2.1312e-005 -7.26621e-006 15.5776 -0.000404 -7.00007e-006 6.89673e-034 -9.93923e-017 3.97569e-016 9.40333 1.03973 -6.51764 -19.0868 17.2453 20.3009 2.77018 -0.006404 1.30004e-005 2.43503 9.23017e-006 -1.75766e-005 9.40368 1.03969 6.51768 -19.0868 -17.2453 -20.3008 2.77018 -0.006401 -8.00016e-006 2.43503 9.98705e-006 -2.80929e-007 
0 0 0 -0 -90 -0 0.000814 -28.701 33.4687 90.0002 0.000164026 49.962 0 -2.1684e-019 1e-006 -90 2.2695e-005 -95.9696 -6.43979 -3.85823 0.672721 173.589 5.87322 3.93111 10.3839 -0.008087 0.001112 4.70297 6.52677 3.13734 10.3829 -0.00811 -0.000816 -2.54925 -6.06929 -7.57016 10.3839 -0.007934 0.001579 4.85135 10.256 -10.2336 10.3862 -0.007556 0.000688 21.4965 4.11278 -8.25203 1.1e-005 -1.1e-005 -8.75617 -105.521 -13.4836 173.975 19.7638 -1e-006 -1e-006 -110.523 0.000382374 -0.00209243 18.6534 -1e-006 3.55271e-015 -48.4603 2.2138 -3.23439 5.09143 13.9567 -1.58596e-006 69.6743 -2.73925 -4.18263 4.288 -1e-006 -8.34888e-014 18.8626 1.31465e-005 4.71892e-006 3.85799 3e-006 2.14939e-013 -45 -1.22437e-005 9.93177e-006 -1.3e-005 1.5e-005 8.75617 -121.001 1.08406 -176.67 19.7638 7e-006 -1.77636e-015 -85.5294 -0.000105105 -0.00296878 18.6534 3e-006 1.77636e-015 -10.7107 2.72004 2.79574 5.09143 13.9567 -1.03691e-006 107.906 4.74154 1.59235 4.288 -1e-006 1e-006 23.037 0.00286019 0.000447692 3.85799 -6.17285e-014 -1e-006 -31.9098 -2.31677e-005 -1.20443e-005 9.09241 -0.006332 -0.950974 0.0469722 0.00621748 5.97091 8.04366 -0.006393 3e-006 -9.54166e-015 1.00179e-005 -9.55462e-020 8.04443 -0.005985 -0.001932 7.97466 -7.18963 0.00614758 8.04304 -0.008323 2.47909e-010 -4.29873 2.45807e-005 2.66074e-005 10.6685 1.06813 6.97238e-006 -13.2811 -2.5806e-005 3.20247e-005 -2.46762 -5.31289 -9.04801 -158.389 -72.1638 138.287 19.0492 -3.55271e-015 -2.84217e-014 106.981 77.3997 -120.899 10.3705 0 -3.55271e-015 -40.6203 0.00100908 0.00222479 22.8631 -1e-006 -1.74083e-013 -32.9016 -0.961791 -22.7955 6.48256 0.103653 0.504495 -1.88654 -15.1485 -3.31265 3.66844 -1e-006 -7.81597e-014 40.107 -3.0441e-005 3.86389e-006 -2.46761 -5.31294 9.04798 -158.385 70.8937 -144.469 19.0492 3.55271e-015 1.42109e-014 86.9468 20.4481 84.9974 10.3706 -3e-006 -1.42109e-014 -133.615 -0.00150416 0.0035454 22.8631 3e-006 -4.61853e-014 54.9358 -4.37665 21.3777 6.48257 0.103653 -0.504494 32.4826 14.432 -5.71297 3.66843 3e-006 -1.42109e-014 40.1071 9.9865e-006 -6.02462e-006 7.52507 -0.006542 0.00012 -19.6871 -0.0293722 -1.99887 8.47605 -0.006572 2.60001e-005 -2.18733 0.00084425 0.00105891 8.41605 -1e-006 -1e-006 -26.1349 0.469805 8.62925 -2.13163e-013 3e-006 -3e-006 -23.1098 1.37701e-015 90 3.60421e-007 -0.5 -3.80266e-006 180 90 -90 6.5275 7.61746 2.28583e-005 -105.03 -7.01671e-015 -180 2.88631 13.9448 3.88994 -23.1098 1.37701e-015 90 0.271065 1.32405 2.97537e-006 -71.7785 0.000106812 -180 4.61616 5.82872 -6.41115e-006 -120.289 -4.36908e-006 4.99819e-006 5.17783 2.98805 3.0756e-006 133.74 2.12664e-005 -1.04736e-006 5.57567 7e-006 -3e-006 1.83152 -7.63835e-006 7.1172e-007 2.93163 -7e-006 -3e-006 -17.65 -1.87643e-005 -4.43249e-006 3.30154 -7e-006 3e-006 -26.1943 1.9205e-005 -8.97022e-006 15.5776 -0.000404 -7.00004e-006 -4.77083e-015 1.49089e-016 -0 9.40333 1.03973 -6.51764 -19.0868 17.2453 20.3009 2.77018 -0.006404 1.30003e-005 2.43503 9.2323e-006 -1.75841e-005 9.40368 1.03969 6.51768 -19.0868 -17.2453 -20.3008 2.77018 -0.006401 -8.00023e-006 2.43503 1.00008e-005 -3.06453e-007 
